<mxfile host="app.diagrams.net" modified="2021-07-22T23:53:15.300Z" agent="5.0 (Windows NT 10.0; Win64; x64) AppleWebKit/537.36 (KHTML, like Gecko) Chrome/91.0.4472.164 Safari/537.36" etag="_g5s5-bKjmKCutU4EnSj" version="14.9.2" type="github">
  <diagram id="Y65PmQIElJN0XXsJEuQO" name="Page-1">
    <mxGraphModel dx="1108" dy="450" grid="1" gridSize="10" guides="1" tooltips="1" connect="1" arrows="1" fold="1" page="1" pageScale="1" pageWidth="827" pageHeight="1169" math="0" shadow="0">
      <root>
        <mxCell id="0" />
        <mxCell id="1" parent="0" />
        <mxCell id="wP-jv-wYP7lu7WL0M2dg-26" value="" style="html=1;shadow=0;dashed=0;align=center;verticalAlign=middle;shape=mxgraph.arrows2.arrow;dy=0.6;dx=40;direction=north;notch=0;fillColor=#FFCCFF;" parent="1" vertex="1">
          <mxGeometry x="670" y="344.75" width="65" height="110" as="geometry" />
        </mxCell>
        <mxCell id="wP-jv-wYP7lu7WL0M2dg-1" value="Acionar script automatizado Python" style="rounded=1;whiteSpace=wrap;html=1;fillColor=#99CCFF;" parent="1" vertex="1">
          <mxGeometry x="35" y="70" width="125" height="60" as="geometry" />
        </mxCell>
        <mxCell id="wP-jv-wYP7lu7WL0M2dg-2" value="Será feito o download do csv dos benefícios do inss e o próprio script irá extrair os arquivos." style="rounded=1;whiteSpace=wrap;html=1;fillColor=#99CCFF;" parent="1" vertex="1">
          <mxGeometry x="35" y="149.5" width="130" height="80.5" as="geometry" />
        </mxCell>
        <mxCell id="wP-jv-wYP7lu7WL0M2dg-3" value="Com arquivo em memória, faremos um split por vírgula, com isso converteremos o registro csv para um objeto Python." style="rounded=1;whiteSpace=wrap;html=1;fillColor=#CC99FF;" parent="1" vertex="1">
          <mxGeometry x="200.26" y="10" width="150" height="90" as="geometry" />
        </mxCell>
        <mxCell id="wP-jv-wYP7lu7WL0M2dg-4" value="" style="rounded=1;whiteSpace=wrap;html=1;fillColor=#99FF99;" parent="1" vertex="1">
          <mxGeometry x="55" y="20" width="80" height="40" as="geometry" />
        </mxCell>
        <mxCell id="wP-jv-wYP7lu7WL0M2dg-5" value="&lt;b&gt;Início&lt;/b&gt;" style="text;html=1;strokeColor=none;fillColor=#99FF99;align=center;verticalAlign=middle;whiteSpace=wrap;rounded=0;" parent="1" vertex="1">
          <mxGeometry x="75" y="30" width="40" height="20" as="geometry" />
        </mxCell>
        <mxCell id="wP-jv-wYP7lu7WL0M2dg-6" value="Vamos descartar a coluna CID do dataframe, pois não será necessária para a análise." style="rounded=1;whiteSpace=wrap;html=1;fillColor=#CC99FF;" parent="1" vertex="1">
          <mxGeometry x="200" y="110" width="150" height="85" as="geometry" />
        </mxCell>
        <mxCell id="wP-jv-wYP7lu7WL0M2dg-7" value="A coluna Qt SM RMI será convertida para numérico." style="rounded=1;whiteSpace=wrap;html=1;align=center;fillColor=#CC99FF;" parent="1" vertex="1">
          <mxGeometry x="200" y="209.5" width="150" height="61" as="geometry" />
        </mxCell>
        <mxCell id="wP-jv-wYP7lu7WL0M2dg-9" value="Carga na tabela Fato QTD_RENDAMENSALINICIAL,&amp;nbsp;&lt;br&gt;respeitando os id&#39;s das tabelas de dimensão inseridos anteriormente." style="rounded=1;whiteSpace=wrap;html=1;fillColor=#FFCCFF;" parent="1" vertex="1">
          <mxGeometry x="612.5" y="255.88" width="180" height="80" as="geometry" />
        </mxCell>
        <mxCell id="wP-jv-wYP7lu7WL0M2dg-14" value="Carga da tabela DIM_UF, com lógica para atualizar caso já exista na tabela." style="rounded=1;whiteSpace=wrap;html=1;fillColor=#FFCCFF;" parent="1" vertex="1">
          <mxGeometry x="520" y="10" width="160" height="60" as="geometry" />
        </mxCell>
        <mxCell id="wP-jv-wYP7lu7WL0M2dg-17" value="" style="html=1;shadow=0;dashed=0;align=center;verticalAlign=middle;shape=mxgraph.arrows2.arrow;dy=0.65;dx=42;direction=north;notch=0;fillColor=#CC99FF;" parent="1" vertex="1">
          <mxGeometry x="330" y="330" width="60" height="111" as="geometry" />
        </mxCell>
        <mxCell id="wP-jv-wYP7lu7WL0M2dg-19" value="" style="html=1;shadow=0;dashed=0;align=center;verticalAlign=middle;shape=mxgraph.arrows2.arrow;dy=0.65;dx=42;direction=north;notch=0;fillColor=#99CCFF;" parent="1" vertex="1">
          <mxGeometry x="65" y="335.88" width="60" height="111" as="geometry" />
        </mxCell>
        <mxCell id="wP-jv-wYP7lu7WL0M2dg-21" value="&lt;b&gt;Tratamento&lt;/b&gt;" style="text;html=1;strokeColor=none;fillColor=none;align=center;verticalAlign=middle;whiteSpace=wrap;rounded=0;rotation=270;" parent="1" vertex="1">
          <mxGeometry x="337.38" y="390" width="45.25" height="19.5" as="geometry" />
        </mxCell>
        <mxCell id="wP-jv-wYP7lu7WL0M2dg-22" value="&lt;b&gt;Extração&lt;/b&gt;" style="text;html=1;strokeColor=none;fillColor=none;align=center;verticalAlign=middle;whiteSpace=wrap;rounded=0;rotation=270;" parent="1" vertex="1">
          <mxGeometry x="75" y="398.38" width="40" height="20" as="geometry" />
        </mxCell>
        <mxCell id="wP-jv-wYP7lu7WL0M2dg-23" value="&lt;b&gt;Carga&lt;/b&gt;" style="text;html=1;strokeColor=none;fillColor=none;align=center;verticalAlign=middle;whiteSpace=wrap;rounded=0;rotation=270;" parent="1" vertex="1">
          <mxGeometry x="682.5" y="412.13" width="40" height="20" as="geometry" />
        </mxCell>
        <mxCell id="wP-jv-wYP7lu7WL0M2dg-27" value="Carga da tabela DIM_ESPECIE, com lógica para atualizar caso já exista na tabela." style="rounded=1;whiteSpace=wrap;html=1;fillColor=#FFCCFF;" parent="1" vertex="1">
          <mxGeometry x="520" y="80" width="160" height="80" as="geometry" />
        </mxCell>
        <mxCell id="wP-jv-wYP7lu7WL0M2dg-28" value="Carga da tabela DIM_CLIENTELA, com lógica para atualizar caso já exista na tabela." style="rounded=1;whiteSpace=wrap;html=1;fillColor=#FFCCFF;" parent="1" vertex="1">
          <mxGeometry x="690" y="80" width="160" height="80" as="geometry" />
        </mxCell>
        <mxCell id="wP-jv-wYP7lu7WL0M2dg-29" value="Carga da tabela DIM_SEXO, com lógica para atualizar caso já exista na tabela." style="rounded=1;whiteSpace=wrap;html=1;fillColor=#FFCCFF;" parent="1" vertex="1">
          <mxGeometry x="690" y="10" width="160" height="60" as="geometry" />
        </mxCell>
        <mxCell id="wP-jv-wYP7lu7WL0M2dg-31" value="Carga da tabela DIM_DESPACHO, com lógica para atualizar caso já exista na tabela." style="rounded=1;whiteSpace=wrap;html=1;fillColor=#FFCCFF;" parent="1" vertex="1">
          <mxGeometry x="520" y="170" width="160" height="80" as="geometry" />
        </mxCell>
        <mxCell id="wP-jv-wYP7lu7WL0M2dg-34" value="&lt;b&gt;Fim&lt;/b&gt;" style="rounded=1;whiteSpace=wrap;html=1;fillColor=#99FF99;" parent="1" vertex="1">
          <mxGeometry x="810" y="350" width="80" height="40" as="geometry" />
        </mxCell>
        <mxCell id="hGix48w2wSFoQdRZVqKq-1" value="Cálculo para criação da coluna idade." style="rounded=1;whiteSpace=wrap;html=1;align=center;fillColor=#CC99FF;" vertex="1" parent="1">
          <mxGeometry x="361" y="20" width="150" height="40" as="geometry" />
        </mxCell>
        <mxCell id="hGix48w2wSFoQdRZVqKq-2" value="Lógica para definir a faixa etária." style="rounded=1;whiteSpace=wrap;html=1;align=center;fillColor=#CC99FF;" vertex="1" parent="1">
          <mxGeometry x="361" y="70" width="150" height="40" as="geometry" />
        </mxCell>
        <mxCell id="hGix48w2wSFoQdRZVqKq-4" value="Conversão do salário mínimo para númerico." style="rounded=1;whiteSpace=wrap;html=1;align=center;fillColor=#CC99FF;" vertex="1" parent="1">
          <mxGeometry x="359" y="122.5" width="151" height="67.5" as="geometry" />
        </mxCell>
        <mxCell id="hGix48w2wSFoQdRZVqKq-5" value="Criação da coluna valor, baseada no cálculo do salário mínimo." style="rounded=1;whiteSpace=wrap;html=1;align=center;fillColor=#CC99FF;" vertex="1" parent="1">
          <mxGeometry x="365.5" y="209.5" width="141" height="60" as="geometry" />
        </mxCell>
        <mxCell id="hGix48w2wSFoQdRZVqKq-7" value="Será feita a extração do valor dos salários mínimos do ano de 2018 a 2020, no site do ipadata." style="rounded=1;whiteSpace=wrap;html=1;fillColor=#99CCFF;" vertex="1" parent="1">
          <mxGeometry x="32.5" y="250" width="137.5" height="70" as="geometry" />
        </mxCell>
        <mxCell id="hGix48w2wSFoQdRZVqKq-9" value="Carga da tabela DIM_FAIXAETARIA, com lógica para atualizar caso já exista na tabela." style="rounded=1;whiteSpace=wrap;html=1;fillColor=#FFCCFF;" vertex="1" parent="1">
          <mxGeometry x="690" y="170" width="160" height="80" as="geometry" />
        </mxCell>
      </root>
    </mxGraphModel>
  </diagram>
</mxfile>
